HIERARCHY
ROOT Hips
{
	OFFSET 0.053599 88.859886 3.107447
	CHANNELS 6 Xposition Yposition Zposition Zrotation Yrotation Xrotation 
	JOINT Spine
	{
		OFFSET -0.000000 8.814246 -2.080107
		CHANNELS 3 Zrotation Yrotation Xrotation
		JOINT Spine1
		{
			OFFSET 0.000000 8.844141 0.000000
			CHANNELS 3 Zrotation Yrotation Xrotation
			JOINT Spine2
			{
				OFFSET -0.000000 11.682268 0.000000
				CHANNELS 3 Zrotation Yrotation Xrotation
				JOINT Spine3
				{
					OFFSET 0.000000 11.746700 0.000000
					CHANNELS 3 Zrotation Yrotation Xrotation
					JOINT Neck
					{
						OFFSET -0.000000 17.658264 -0.000000
						CHANNELS 3 Zrotation Yrotation Xrotation
						JOINT Neck1
						{
							OFFSET -0.000000 5.101515 -0.000000
							CHANNELS 3 Zrotation Yrotation Xrotation
							JOINT Head
							{
								OFFSET 0.000000 5.101515 0.000000
								CHANNELS 3 Zrotation Yrotation Xrotation
								JOINT HeadEnd
								{
									OFFSET 0.000000 11.655085 0.000000
									CHANNELS 3 Zrotation Yrotation Xrotation
									End Site
									{
										OFFSET 0.000000 0.000000 0.000000
									}
								}
							}
						}
					}
					JOINT RightShoulder
					{
						OFFSET -2.625389 11.175210 0.000000
						CHANNELS 3 Zrotation Yrotation Xrotation
						JOINT RightArm
						{
							OFFSET -0.000000 10.434715 -0.000000
							CHANNELS 3 Zrotation Yrotation Xrotation
							JOINT RightForeArm
							{
								OFFSET -0.000000 29.628420 0.000000
								CHANNELS 3 Zrotation Yrotation Xrotation
								JOINT RightHand
								{
									OFFSET -0.000000 22.857611 0.000000
									CHANNELS 3 Zrotation Yrotation Xrotation
									JOINT RightHandThumb1
									{
										OFFSET -2.867323 3.959563 2.944291
										CHANNELS 3 Zrotation Yrotation Xrotation
										JOINT RightHandThumb2
										{
											OFFSET 0.000000 3.350399 0.000000
											CHANNELS 3 Zrotation Yrotation Xrotation
											JOINT RightHandThumb3
											{
												OFFSET 0.000000 3.756509 -0.000000
												CHANNELS 3 Zrotation Yrotation Xrotation
												JOINT RightHandThumb4
												{
													OFFSET 0.000000 3.147345 0.000000
													CHANNELS 3 Zrotation Yrotation Xrotation
													End Site
													{
														OFFSET 0.000000 0.000000 0.000000
													}
												}
											}
										}
									}
									JOINT RightHandIndex1
									{
										OFFSET -0.086752 10.030893 2.345280
										CHANNELS 3 Zrotation Yrotation Xrotation
										JOINT RightHandIndex2
										{
											OFFSET -0.000000 4.061090 0.000000
											CHANNELS 3 Zrotation Yrotation Xrotation
											JOINT RightHandIndex3
											{
												OFFSET -0.000000 3.248873 0.000000
												CHANNELS 3 Zrotation Yrotation Xrotation
												JOINT RightHandIndex4
												{
													OFFSET 0.000000 2.639709 -0.000000
													CHANNELS 3 Zrotation Yrotation Xrotation
													End Site
													{
														OFFSET 0.000000 0.000000 0.000000
													}
												}
											}
										}
									}
									JOINT RightHandMiddle1
									{
										OFFSET 0.104102 9.502952 0.006768
										CHANNELS 3 Zrotation Yrotation Xrotation
										JOINT RightHandMiddle2
										{
											OFFSET 0.000000 4.568727 0.000000
											CHANNELS 3 Zrotation Yrotation Xrotation
											JOINT RightHandMiddle3
											{
												OFFSET 0.000000 3.654981 -0.000000
												CHANNELS 3 Zrotation Yrotation Xrotation
												JOINT RightHandMiddle4
												{
													OFFSET -0.000000 2.741236 -0.000000
													CHANNELS 3 Zrotation Yrotation Xrotation
													End Site
													{
														OFFSET 0.000000 0.000000 0.000000
													}
												}
											}
										}
									}
									JOINT RightHandRing1
									{
										OFFSET 0.086752 8.921708 -2.267442
										CHANNELS 3 Zrotation Yrotation Xrotation
										JOINT RightHandRing2
										{
											OFFSET -0.000000 4.061090 0.000000
											CHANNELS 3 Zrotation Yrotation Xrotation
											JOINT RightHandRing3
											{
												OFFSET 0.000000 3.654981 -0.000000
												CHANNELS 3 Zrotation Yrotation Xrotation
												JOINT RightHandRing4
												{
													OFFSET 0.000000 2.741236 -0.000000
													CHANNELS 3 Zrotation Yrotation Xrotation
													End Site
													{
														OFFSET 0.000000 0.000000 0.000000
													}
												}
											}
										}
									}
									JOINT RightHandPinky1
									{
										OFFSET -0.173504 7.976997 -4.467199
										CHANNELS 3 Zrotation Yrotation Xrotation
										JOINT RightHandPinky2
										{
											OFFSET 0.000000 3.350399 -0.000000
											CHANNELS 3 Zrotation Yrotation Xrotation
											JOINT RightHandPinky3
											{
												OFFSET -0.000000 2.842763 0.000000
												CHANNELS 3 Zrotation Yrotation Xrotation
												JOINT RightHandPinky4
												{
													OFFSET -0.000000 2.639709 0.000000
													CHANNELS 3 Zrotation Yrotation Xrotation
													End Site
													{
														OFFSET 0.000000 0.000000 0.000000
													}
												}
											}
										}
									}
									JOINT RightForeArmEnd
									{
										OFFSET 0.000000 0.000000 0.000000
										CHANNELS 3 Zrotation Yrotation Xrotation
										End Site
										{
											OFFSET 0.000000 0.000000 0.000000
										}
									}
								}
								JOINT RightArmEnd
								{
									OFFSET 0.000000 0.000000 0.000000
									CHANNELS 3 Zrotation Yrotation Xrotation
									End Site
									{
										OFFSET 0.000000 0.000000 0.000000
									}
								}
							}
						}
					}
					JOINT LeftShoulder
					{
						OFFSET 2.625389 11.175210 0.000000
						CHANNELS 3 Zrotation Yrotation Xrotation
						JOINT LeftArm
						{
							OFFSET 0.000000 10.813635 -0.000000
							CHANNELS 3 Zrotation Yrotation Xrotation
							JOINT LeftForeArm
							{
								OFFSET 0.000000 28.724781 0.000000
								CHANNELS 3 Zrotation Yrotation Xrotation
								JOINT LeftHand
								{
									OFFSET 0.644384 25.716167 -0.328871
									CHANNELS 3 Zrotation Yrotation Xrotation
									JOINT LeftHandThumb1
									{
										OFFSET 2.867323 3.959563 2.944291
										CHANNELS 3 Zrotation Yrotation Xrotation
										JOINT LeftHandThumb2
										{
											OFFSET 0.000000 3.350399 0.000000
											CHANNELS 3 Zrotation Yrotation Xrotation
											JOINT LeftHandThumb3
											{
												OFFSET -0.000000 3.756509 0.000000
												CHANNELS 3 Zrotation Yrotation Xrotation
												JOINT LeftHandThumb4
												{
													OFFSET -0.000000 3.100000 0.000000
													CHANNELS 3 Zrotation Yrotation Xrotation
													End Site
													{
														OFFSET 0.000000 0.000000 0.000000
													}
												}
											}
										}
									}
									JOINT LeftHandIndex1
									{
										OFFSET 0.086752 10.030893 2.345280
										CHANNELS 3 Zrotation Yrotation Xrotation
										JOINT LeftHandIndex2
										{
											OFFSET -0.000000 4.061090 -0.000000
											CHANNELS 3 Zrotation Yrotation Xrotation
											JOINT LeftHandIndex3
											{
												OFFSET 0.000000 3.248873 -0.000000
												CHANNELS 3 Zrotation Yrotation Xrotation
												JOINT LeftHandIndex4
												{
													OFFSET 0.000000 2.639709 -0.000000
													CHANNELS 3 Zrotation Yrotation Xrotation
													End Site
													{
														OFFSET 0.000000 0.000000 0.000000
													}
												}
											}
										}
									}
									JOINT LeftHandMiddle1
									{
										OFFSET -0.104102 9.502952 0.006768
										CHANNELS 3 Zrotation Yrotation Xrotation
										JOINT LeftHandMiddle2
										{
											OFFSET -0.000000 4.568727 -0.000000
											CHANNELS 3 Zrotation Yrotation Xrotation
											JOINT LeftHandMiddle3
											{
												OFFSET 0.000000 3.654981 0.000000
												CHANNELS 3 Zrotation Yrotation Xrotation
												JOINT LeftHandMiddle4
												{
													OFFSET 0.000000 2.741236 -0.000000
													CHANNELS 3 Zrotation Yrotation Xrotation
													End Site
													{
														OFFSET 0.000000 0.000000 0.000000
													}
												}
											}
										}
									}
									JOINT LeftHandRing1
									{
										OFFSET -0.086752 8.921708 -2.267442
										CHANNELS 3 Zrotation Yrotation Xrotation
										JOINT LeftHandRing2
										{
											OFFSET 0.000000 4.061090 0.000000
											CHANNELS 3 Zrotation Yrotation Xrotation
											JOINT LeftHandRing3
											{
												OFFSET 0.000000 3.654981 0.000000
												CHANNELS 3 Zrotation Yrotation Xrotation
												JOINT LeftHandRing4
												{
													OFFSET 0.000000 2.741236 0.000000
													CHANNELS 3 Zrotation Yrotation Xrotation
													End Site
													{
														OFFSET 0.000000 0.000000 0.000000
													}
												}
											}
										}
									}
									JOINT LeftHandPinky1
									{
										OFFSET 0.173504 7.976997 -4.467199
										CHANNELS 3 Zrotation Yrotation Xrotation
										JOINT LeftHandPinky2
										{
											OFFSET -0.000000 3.350399 -0.000000
											CHANNELS 3 Zrotation Yrotation Xrotation
											JOINT LeftHandPinky3
											{
												OFFSET 0.000000 2.842763 0.000000
												CHANNELS 3 Zrotation Yrotation Xrotation
												JOINT LeftHandPinky4
												{
													OFFSET -0.000000 2.639709 -0.000000
													CHANNELS 3 Zrotation Yrotation Xrotation
													End Site
													{
														OFFSET 0.000000 0.000000 0.000000
													}
												}
											}
										}
									}
									JOINT LeftForeArmEnd
									{
										OFFSET 0.000000 0.000000 0.000000
										CHANNELS 3 Zrotation Yrotation Xrotation
										End Site
										{
											OFFSET 0.000000 0.000000 0.000000
										}
									}
								}
								JOINT LeftArmEnd
								{
									OFFSET 0.000000 0.000000 0.000000
									CHANNELS 3 Zrotation Yrotation Xrotation
									End Site
									{
										OFFSET 0.000000 0.000000 0.000000
									}
								}
							}
						}
					}
				}
			}
		}
	}
	JOINT RightUpLeg
	{
		OFFSET -11.289943 0.000000 0.000000
		CHANNELS 3 Zrotation Yrotation Xrotation
		JOINT RightLeg
		{
			OFFSET 0.000000 -38.200325 0.000000
			CHANNELS 3 Zrotation Yrotation Xrotation
			JOINT RightFoot
			{
				OFFSET -0.000000 -39.900856 -0.000000
				CHANNELS 3 Zrotation Yrotation Xrotation
				JOINT RightToeBase
				{
					OFFSET 0.000000 0.000000 15.261641
					CHANNELS 3 Zrotation Yrotation Xrotation
					JOINT RightToeBaseEnd
					{
						OFFSET 0.000000 0.000000 7.370709
						CHANNELS 3 Zrotation Yrotation Xrotation
						End Site
						{
							OFFSET 0.000000 0.000000 0.000000
						}
					}
				}
				JOINT RightLegEnd
				{
					OFFSET 0.000000 0.000000 0.000000
					CHANNELS 3 Zrotation Yrotation Xrotation
					End Site
					{
						OFFSET 0.000000 0.000000 0.000000
					}
				}
			}
			JOINT RightUpLegEnd
			{
				OFFSET 0.000000 0.000000 0.000000
				CHANNELS 3 Zrotation Yrotation Xrotation
				End Site
				{
					OFFSET 0.000000 0.000000 0.000000
				}
			}
		}
	}
	JOINT LeftUpLeg
	{
		OFFSET 11.315661 -0.000000 0.000000
		CHANNELS 3 Zrotation Yrotation Xrotation
		JOINT LeftLeg
		{
			OFFSET -0.000000 -38.200325 -0.000000
			CHANNELS 3 Zrotation Yrotation Xrotation
			JOINT LeftFoot
			{
				OFFSET 0.000000 -39.900856 -0.000000
				CHANNELS 3 Zrotation Yrotation Xrotation
				JOINT LeftToeBase
				{
					OFFSET -0.000000 -0.000000 15.261641
					CHANNELS 3 Zrotation Yrotation Xrotation
					JOINT LeftToeBaseEnd
					{
						OFFSET 0.000000 -0.000000 7.539996
						CHANNELS 3 Zrotation Yrotation Xrotation
						End Site
						{
							OFFSET 0.000000 0.000000 0.000000
						}
					}
				}
				JOINT LeftLegEnd
				{
					OFFSET 0.000000 0.000000 0.000000
					CHANNELS 3 Zrotation Yrotation Xrotation
					End Site
					{
						OFFSET 0.000000 0.000000 0.000000
					}
				}
			}
			JOINT LeftUpLegEnd
			{
				OFFSET 0.000000 0.000000 0.000000
				CHANNELS 3 Zrotation Yrotation Xrotation
				End Site
				{
					OFFSET 0.000000 0.000000 0.000000
				}
			}
		}
	}
}
MOTION
Frames: 4
Frame Time: 0.016667
0.271994 88.580093 2.872796 0.429012 0.452296 -10.151334 0.677415 0.116152 7.200454 -1.285582 0.379629 3.438444 -0.129069 -0.419771 5.251784 -1.651392 0.237349 5.952151 3.234936 -1.403433 6.714435 0.368979 -0.403418 -2.408375 0.210230 -0.693663 -20.740200 0.000000 0.000000 0.000000 90.885590 -0.221397 7.953318 69.679314 -13.376865 -4.048665 -1.012259 19.517452 73.694389 -20.972410 -7.303207 3.915085 16.370974 31.292366 65.564430 -4.476671 -5.683367 -10.135283 -3.278937 -3.658312 -6.761366 0.000000 0.000000 0.000000 -14.512095 -6.427433 14.183689 0.410129 0.557005 0.325456 -0.039746 0.142731 0.458046 0.000000 0.000000 0.000000 -14.117589 -1.045406 8.238236 -0.373820 0.540807 0.077337 0.051386 0.038809 0.096320 0.000000 0.000000 0.000000 -12.922235 6.699764 0.335827 -0.056259 -1.033036 -0.288495 -0.105578 -0.047519 -0.187273 0.000000 0.000000 0.000000 -12.333161 14.927062 -7.120944 0.709317 -2.033301 -0.770065 0.537723 -0.072702 -0.552472 0.000000 0.000000 0.000000 0.000000 0.000000 0.000000 0.000000 0.000000 0.000000 -89.147629 0.196199 3.333997 -71.264999 3.227683 -8.051672 -0.033259 -15.118765 91.211281 22.106030 4.356619 6.235728 -15.687161 -31.562042 66.349762 3.737624 4.028916 -7.534688 2.559492 2.745513 -5.391445 0.000000 0.000000 0.000000 11.857882 -11.138099 18.528830 -0.614900 0.561355 -0.240222 -0.765276 0.092745 -0.286401 0.000000 0.000000 0.000000 10.837799 -5.535742 11.856990 -0.844484 0.516087 -0.147190 -1.467289 0.028098 -0.129962 0.000000 0.000000 0.000000 6.924499 3.356700 3.250464 -3.522260 -1.007026 0.384711 -3.427548 -0.025481 0.312394 0.000000 0.000000 0.000000 1.274609 13.588349 -5.715342 -6.473334 -1.897156 1.570066 -5.936068 0.106630 1.355341 0.000000 0.000000 0.000000 0.000000 0.000000 0.000000 0.000000 0.000000 0.000000 -1.150682 -9.098616 14.749446 -0.089096 -0.700627 5.078353 -2.937265 -7.582933 16.386612 -0.740154 0.923926 -18.558300 0.000000 0.000000 0.000000 0.000000 0.000000 0.000000 0.000000 0.000000 0.000000 -1.981403 -5.803904 8.159989 0.056776 0.313158 11.097455 4.226758 -2.281506 16.048710 0.183214 -0.434803 -20.486631 0.000000 0.000000 0.000000 0.000000 0.000000 0.000000 0.000000 0.000000 0.000000 
0.260471 88.566238 2.911789 0.422075 0.477423 -10.189450 0.654817 0.117190 7.213524 -1.293979 0.375078 3.430982 -0.117498 -0.465087 5.344233 -1.603419 0.215152 5.967301 3.132550 -1.310602 6.758519 0.370655 -0.330259 -2.396224 0.178327 -0.696789 -20.704586 0.000000 0.000000 0.000000 90.956139 -0.246169 7.972069 69.628845 -13.543900 -3.880621 -1.010090 19.595184 73.482903 -20.274258 -7.101265 3.246042 16.370459 31.295382 65.572327 -4.466772 -5.677889 -10.119325 -3.272125 -3.653599 -6.753778 0.000000 0.000000 0.000000 -14.617251 -6.419199 13.999114 0.451134 0.553325 0.338685 -0.009362 0.139238 0.470121 0.000000 0.000000 0.000000 -14.214678 -1.030711 8.068113 -0.348257 0.539693 0.082128 0.081820 0.037588 0.101077 0.000000 0.000000 0.000000 -13.003166 6.715562 0.191164 -0.048125 -1.031100 -0.296233 -0.106214 -0.045603 -0.193446 0.000000 0.000000 0.000000 -12.371145 14.933299 -7.244054 0.715369 -2.028690 -0.787617 0.538960 -0.067378 -0.568846 0.000000 0.000000 0.000000 0.000000 0.000000 0.000000 0.000000 0.000000 0.000000 -89.138535 0.206100 3.365471 -71.320343 2.943143 -7.954646 -0.109749 -15.229905 90.307930 21.256250 3.542155 4.832420 -15.676774 -31.570047 66.369301 3.716102 3.988125 -7.479268 2.541250 2.722615 -5.353309 0.000000 0.000000 0.000000 12.104268 -11.184760 18.363737 -0.616051 0.556998 -0.263162 -0.777019 0.088648 -0.307156 0.000000 0.000000 0.000000 11.025472 -5.573234 11.706985 -0.845706 0.514526 -0.154937 -1.473915 0.026619 -0.136689 0.000000 0.000000 0.000000 7.012759 3.343180 3.129829 -3.541909 -1.005130 0.394277 -3.442913 -0.023802 0.319425 0.000000 0.000000 0.000000 1.255839 13.607623 -5.848453 -6.519503 -1.891442 1.584562 -5.969327 0.111443 1.370607 0.000000 0.000000 0.000000 0.000000 0.000000 0.000000 0.000000 0.000000 0.000000 -1.159091 -9.122499 14.781107 -0.090673 -0.705062 5.123493 -2.930478 -7.562099 16.334448 -0.735659 0.928800 -18.536495 0.000000 0.000000 0.000000 0.000000 0.000000 0.000000 0.000000 0.000000 0.000000 -1.975112 -5.785553 8.182640 0.056477 0.314174 11.116235 4.252069 -2.264436 16.019918 0.182368 -0.435181 -20.483780 0.000000 0.000000 0.000000 0.000000 0.000000 0.000000 0.000000 0.000000 0.000000 
0.248927 88.550018 2.952364 0.415879 0.489045 -10.235111 0.632096 0.118218 7.234902 -1.303900 0.369712 3.420156 -0.104409 -0.512645 5.444368 -1.556220 0.192572 5.981711 3.033540 -1.218949 6.795223 0.371992 -0.257493 -2.385277 0.146438 -0.697498 -20.662998 0.000000 0.000000 0.000000 91.034813 -0.270618 8.002806 69.565979 -13.717564 -3.691775 -1.007411 19.654192 73.120155 -19.472176 -6.834722 2.461951 16.364286 31.300091 65.586128 -4.450140 -5.660817 -10.084005 -3.259693 -3.640840 -6.732759 0.000000 0.000000 0.000000 -14.764977 -6.403647 13.790922 0.491097 0.549039 0.350455 0.020027 0.135130 0.480969 0.000000 0.000000 0.000000 -14.349308 -1.009737 7.879833 -0.328987 0.538380 0.086504 0.109423 0.036260 0.105466 0.000000 0.000000 0.000000 -13.114580 6.735198 0.034912 -0.048127 -1.028798 -0.303182 -0.112894 -0.043521 -0.198881 0.000000 0.000000 0.000000 -12.437604 14.940641 -7.380578 0.710045 -2.022984 -0.802787 0.528688 -0.061166 -0.583909 0.000000 0.000000 0.000000 0.000000 0.000000 0.000000 0.000000 0.000000 0.000000 -89.128067 0.214855 3.403352 -71.383163 2.616773 -7.841993 -0.189762 -15.347945 89.252777 20.270931 2.664630 3.270959 -15.653784 -31.582499 66.401794 3.678092 3.921660 -7.383688 2.511067 2.684225 -5.286265 0.000000 0.000000 0.000000 12.446174 -11.246815 18.189709 -0.601799 0.552283 -0.283383 -0.771065 0.084412 -0.325876 0.000000 0.000000 0.000000 11.315398 -5.627350 11.541963 -0.827892 0.512921 -0.161737 -1.462843 0.025165 -0.142522 0.000000 0.000000 0.000000 7.203391 3.310671 2.988426 -3.534813 -1.003108 0.401884 -3.432454 -0.022048 0.325097 0.000000 0.000000 0.000000 1.329285 13.608426 -6.005820 -6.535895 -1.884992 1.592855 -5.970653 0.116638 1.381383 0.000000 0.000000 0.000000 0.000000 0.000000 0.000000 0.000000 0.000000 0.000000 -1.161919 -9.134707 14.798579 -0.092238 -0.709342 5.197596 -2.922598 -7.546925 16.271799 -0.731560 0.934637 -18.514021 0.000000 0.000000 0.000000 0.000000 0.000000 0.000000 0.000000 0.000000 0.000000 -1.967339 -5.766225 8.211096 0.056275 0.315137 11.148061 4.277008 -2.240316 15.978771 0.181534 -0.435654 -20.477114 0.000000 0.000000 0.000000 0.000000 0.000000 0.000000 0.000000 0.000000 0.000000 
0.238134 88.532509 2.994363 0.411099 0.489404 -10.286933 0.610288 0.119378 7.263845 -1.314633 0.363598 3.406987 -0.091589 -0.560092 5.549472 -1.513361 0.169498 5.994743 2.942478 -1.131659 6.812790 0.372899 -0.186732 -2.382116 0.114853 -0.695465 -20.614397 0.000000 0.000000 0.000000 91.115211 -0.294359 8.041707 69.487480 -13.897590 -3.501809 -1.004551 19.693573 72.646042 -18.610573 -6.528880 1.630395 16.353661 31.305992 65.604309 -4.428512 -5.634723 -10.033827 -3.243037 -3.621667 -6.701176 0.000000 0.000000 0.000000 -14.935808 -6.383430 13.577259 0.530746 0.544938 0.358875 0.049701 0.131167 0.488886 0.000000 0.000000 0.000000 -14.504145 -0.985235 7.688920 -0.314963 0.537196 0.089690 0.135539 0.035119 0.108832 0.000000 0.000000 0.000000 -13.244887 6.757095 -0.120411 -0.054710 -1.026669 -0.308350 -0.124449 -0.041659 -0.202746 0.000000 0.000000 0.000000 -12.526605 14.949364 -7.519463 0.694875 -2.017498 -0.812715 0.508226 -0.055233 -0.595058 0.000000 0.000000 0.000000 0.000000 0.000000 0.000000 0.000000 0.000000 0.000000 -89.116600 0.222837 3.445132 -71.447060 2.261651 -7.720517 -0.274047 -15.463090 88.086220 19.203821 1.748875 1.651958 -15.620940 -31.598099 66.443848 3.627941 3.836405 -7.258378 2.472289 2.634538 -5.197371 0.000000 0.000000 0.000000 12.847364 -11.317182 18.013256 -0.573643 0.548017 -0.298111 -0.749143 0.080876 -0.339944 0.000000 0.000000 0.000000 11.676878 -5.692056 11.369598 -0.791882 0.511627 -0.166442 -1.435446 0.024071 -0.146530 0.000000 0.000000 0.000000 7.477905 3.261821 2.835617 -3.499306 -1.001537 0.406026 -3.394050 -0.020686 0.328244 0.000000 0.000000 0.000000 1.489660 13.588490 -6.172989 -6.516883 -1.879479 1.591051 -5.935237 0.120777 1.384075 0.000000 0.000000 0.000000 0.000000 0.000000 0.000000 0.000000 0.000000 0.000000 -1.159824 -9.135578 14.802085 -0.093698 -0.713142 5.298314 -2.913237 -7.538936 16.200697 -0.728206 0.941107 -18.492664 0.000000 0.000000 0.000000 0.000000 0.000000 0.000000 0.000000 0.000000 0.000000 -1.959208 -5.748769 8.245359 0.056145 0.315778 11.193233 4.301805 -2.210531 15.926759 0.180636 -0.435916 -20.467678 0.000000 0.000000 0.000000 0.000000 0.000000 0.000000 0.000000 0.000000 0.000000 
